<svg width="24" height="24" viewBox="0 0 24 24" fill="none" xmlns="http://www.w3.org/2000/svg">
<path d="M8.5 19H8C4 19 2 18 2 13V8C2 4 4 2 8.5 2H15.5C20 2 22 4 22 8V13C22 17 20 18 16 18H15.5C15.19 18 14.89 18.15 14.7 18.4L13.2 20.4C12.54 21.28 11.46 21.28 10.8 20.4L9.3 18.4C9.11 18.15 8.81 18 8.5 18V19Z" stroke="#969696" stroke-width="1.5" stroke-miterlimit="10" stroke-linecap="round" stroke-linejoin="round"/>
<path d="M15.9965 11H16.0055" stroke="#969696" stroke-width="2" stroke-linecap="round" stroke-linejoin="round"/>
<path d="M11.9955 11H12.0045" stroke="#969696" stroke-width="2" stroke-linecap="round" stroke-linejoin="round"/>
<path d="M7.99451 11H8.00349" stroke="#969696" stroke-width="2" stroke-linecap="round" stroke-linejoin="round"/>
</svg>
